<svg xmlns="http://www.w3.org/2000/svg" xmlns:xlink="http://www.w3.org/1999/xlink" viewBox="0 0 32 32">
  <title>amex</title>
  <path d="M13.239 12.504v-0.781h-2.999v3.745h2.999v-0.77h-2.105v-0.747h2.048v-0.77h-2.048v-0.679zM17.46 12.73c0-0.419-0.17-0.668-0.453-0.826-0.294-0.17-0.622-0.181-1.086-0.181h-2.059v3.757h0.894v-1.369h0.962c0.328 0 0.52 0.034 0.656 0.158 0.158 0.181 0.147 0.509 0.147 0.736v0.475h0.905v-0.736c0-0.339-0.023-0.498-0.147-0.69-0.079-0.113-0.249-0.238-0.441-0.317 0.226-0.102 0.622-0.407 0.622-1.007zM16.283 13.262c-0.124 0.079-0.272 0.079-0.441 0.079h-1.086v-0.837h1.109c0.158 0 0.317 0.011 0.43 0.068s0.192 0.17 0.192 0.328c-0.011 0.17-0.079 0.294-0.204 0.362zM1.222 14.642h1.867l0.339 0.837h1.822v-2.942l1.301 2.942h0.792l1.301-2.942v2.942h0.917v-3.757h-1.482l-1.075 2.546-1.177-2.546h-1.46v3.553l-1.528-3.553h-1.335l-1.505 3.508v0.238h0.871l0.351-0.826zM2.15 12.356l0.611 1.494h-1.222l0.611-1.494zM21.194 12.526h0.849v-0.803h-0.871c-0.622 0-1.075 0.136-1.358 0.441-0.385 0.407-0.487 0.905-0.487 1.471 0 0.679 0.158 1.109 0.475 1.437 0.249 0.339 0.702 0.464 1.301 0.419h1.052l0.339-0.837h1.867l0.351 0.837h1.822v-2.818l1.697 2.818h1.267v-3.757h-0.917v2.614l-1.573-2.614h-1.369v3.553l-1.516-3.553h-1.335l-1.267 2.953h-0.407c-0.238 0-0.487-0.045-0.622-0.192-0.17-0.192-0.249-0.475-0.249-0.883 0-0.396 0.102-0.69 0.26-0.849 0.181-0.192 0.362-0.238 0.69-0.238zM23.434 12.356l0.622 1.494h-1.233l0.611-1.494zM17.98 11.723h0.917v3.757h-0.917v-3.757zM21.307 19.191c0-0.43-0.181-0.668-0.464-0.837-0.294-0.158-0.622-0.181-1.075-0.181h-2.071v3.757h0.905v-1.369h0.962c0.328 0 0.532 0.034 0.656 0.17 0.17 0.17 0.147 0.509 0.147 0.736v0.464h0.905v-0.747c0-0.328-0.023-0.498-0.147-0.69-0.079-0.113-0.238-0.238-0.441-0.317 0.215-0.079 0.622-0.385 0.622-0.984zM20.13 19.723c-0.124 0.068-0.272 0.079-0.441 0.079h-1.086v-0.837h1.109c0.158 0 0.317 0 0.43 0.068 0.113 0.057 0.181 0.181 0.181 0.339s-0.079 0.283-0.192 0.351zM15.763 18.184h-2.863l-1.143 1.233-1.109-1.233h-3.598v3.757h3.553l1.143-1.245 1.109 1.245h1.743v-1.256h1.12c0.781 0 1.562-0.215 1.562-1.256-0.011-1.052-0.803-1.245-1.516-1.245zM10.139 21.149h-2.195v-0.747h1.969v-0.77h-1.969v-0.679h2.252l0.984 1.098-1.041 1.098zM13.703 21.59l-1.38-1.528 1.381-1.482v3.010zM15.751 19.915h-1.154v-0.951h1.165c0.328 0 0.543 0.136 0.543 0.464 0 0.317-0.215 0.487-0.554 0.487zM24.792 18.953v-0.77h-2.987v3.745h2.987v-0.781h-2.093v-0.747h2.048v-0.77h-2.048v-0.679zM31.796 20.051v0c-0.023-0.034-0.045-0.068-0.079-0.090-0.204-0.204-0.532-0.294-1.018-0.306l-0.487-0.011c-0.147 0-0.249-0.011-0.351-0.045-0.113-0.045-0.192-0.136-0.192-0.283 0-0.124 0.034-0.204 0.136-0.272 0.090-0.057 0.204-0.068 0.362-0.068h1.629v-0.803h-1.788c-0.939 0-1.29 0.577-1.29 1.12 0 1.188 1.052 1.132 1.89 1.166 0.158 0 0.249 0.023 0.317 0.079s0.113 0.136 0.113 0.249c0 0.102-0.045 0.181-0.102 0.249-0.068 0.068-0.192 0.090-0.362 0.090h-1.72v0.803h1.731c0.577 0 0.996-0.158 1.222-0.475v0 0c0.124-0.181 0.192-0.419 0.192-0.702-0.011-0.328-0.079-0.532-0.204-0.702zM30.484 22.665h-2.32v-0.339c-0.272 0.215-0.758 0.339-1.222 0.339h-7.321v-1.211c0-0.147-0.011-0.158-0.158-0.158h-0.113v1.369h-2.41v-1.414c-0.407 0.17-0.86 0.192-1.245 0.181h-0.283v1.245h-2.919l-0.724-0.815-0.758 0.815h-4.775v-5.239h4.832l0.69 0.803 0.736-0.803h3.236c0.373 0 0.984 0.034 1.267 0.306v-0.306h2.897c0.272 0 0.86 0.057 1.211 0.306v-0.306h4.379v0.306c0.215-0.204 0.679-0.306 1.075-0.306h2.455v0.306c0.26-0.181 0.622-0.306 1.12-0.306h1.663v-17.437h-31.796v13.205l0.973-2.229h2.342l0.306 0.622v-0.622h2.738l0.6 1.347 0.588-1.347h8.702c0.396 0 0.747 0.079 1.007 0.306v-0.306h2.387v0.306c0.407-0.226 0.917-0.306 1.494-0.306h3.451l0.317 0.622v-0.622h2.557l0.351 0.622v-0.622h2.489v5.228h-2.512l-0.475-0.792v0.792h-3.146l-0.339-0.837h-0.77l-0.351 0.837h-1.629c-0.645 0-1.12-0.147-1.437-0.317v0.317h-3.87v-1.188c0-0.17-0.034-0.181-0.136-0.181h-0.147v1.369h-7.491v-0.645l-0.272 0.645h-1.562l-0.272-0.645v0.634h-3.010l-0.339-0.837h-0.769l-0.351 0.837h-1.426v15.808h31.785v-9.596c-0.351 0.192-0.826 0.26-1.301 0.26zM27.067 21.126h-1.743v0.803h1.743c0.905 0 1.403-0.373 1.403-1.188 0-0.385-0.090-0.611-0.272-0.792-0.204-0.204-0.532-0.294-1.030-0.306l-0.487-0.011c-0.147 0-0.249-0.011-0.351-0.045-0.113-0.045-0.192-0.136-0.192-0.283 0-0.124 0.034-0.204 0.136-0.272 0.090-0.057 0.192-0.068 0.362-0.068h1.641v-0.803h-1.799c-0.939 0-1.279 0.577-1.279 1.12 0 1.188 1.052 1.132 1.89 1.166 0.158 0 0.249 0.023 0.317 0.079 0.057 0.057 0.113 0.136 0.113 0.249 0 0.102-0.045 0.181-0.102 0.249-0.057 0.079-0.181 0.102-0.351 0.102z"></path>
</svg>