<svg xmlns="http://www.w3.org/2000/svg" xmlns:xlink="http://www.w3.org/1999/xlink" viewBox="0 0 66 32">
  <title>apple-pay</title>
  <path d="M17.253 13.253c0.035 3.6 3.26 4.797 3.296 4.813-0.027 0.084-0.515 1.707-1.699 3.383-1.023 1.449-2.086 2.893-3.759 2.922-1.644 0.029-2.173-0.944-4.053-0.944s-2.467 0.915-4.023 0.974c-1.615 0.059-2.845-1.567-3.877-3.011-2.109-2.953-3.72-8.345-1.556-11.984 1.075-1.807 2.996-2.952 5.081-2.981 1.586-0.029 3.083 1.034 4.053 1.034s2.788-1.278 4.701-1.091c0.801 0.032 3.048 0.313 4.491 2.359-0.116 0.070-2.682 1.516-2.654 4.526zM14.163 4.414c0.858-1.005 1.435-2.405 1.277-3.798-1.236 0.048-2.731 0.798-3.617 1.803-0.795 0.89-1.49 2.314-1.303 3.679 1.378 0.103 2.785-0.678 3.643-1.684z"></path>
  <path class="path2" d="M26.574 2.693c0.636-0.107 1.337-0.203 2.103-0.289s1.61-0.128 2.53-0.128c1.314 0 2.448 0.155 3.401 0.465s1.736 0.754 2.349 1.332c0.526 0.513 0.937 1.123 1.232 1.829s0.443 1.519 0.443 2.439c0 1.113-0.203 2.086-0.608 2.921s-0.958 1.535-1.659 2.102c-0.701 0.567-1.533 0.989-2.497 1.267s-2.015 0.417-3.155 0.417c-1.029 0-1.894-0.075-2.595-0.224v9.243h-1.545zM28.119 13.477c0.372 0.106 0.788 0.181 1.248 0.224s0.953 0.064 1.478 0.064c1.971 0 3.499-0.449 4.583-1.348s1.626-2.214 1.626-3.947c0-0.835-0.142-1.562-0.427-2.183s-0.69-1.129-1.215-1.525c-0.525-0.396-1.15-0.695-1.873-0.899s-1.523-0.305-2.399-0.305c-0.701 0-1.303 0.027-1.807 0.080s-0.909 0.112-1.215 0.176z"></path>
  <path class="path3" d="M50.915 20.408c0 0.621 0.011 1.242 0.033 1.862s0.087 1.219 0.197 1.797h-1.446l-0.23-2.182h-0.066c-0.197 0.3-0.449 0.599-0.756 0.899s-0.662 0.572-1.067 0.818c-0.405 0.246-0.865 0.444-1.38 0.594s-1.079 0.224-1.692 0.224c-0.767 0-1.44-0.123-2.021-0.369s-1.057-0.567-1.429-0.963c-0.372-0.396-0.652-0.851-0.838-1.364s-0.279-1.027-0.279-1.541c0-1.819 0.783-3.22 2.349-4.204s3.927-1.455 7.081-1.412v-0.417c0-0.407-0.038-0.872-0.115-1.397s-0.247-1.022-0.509-1.492c-0.263-0.47-0.657-0.866-1.183-1.187s-1.238-0.481-2.136-0.481c-0.678 0-1.352 0.102-2.020 0.305s-1.276 0.486-1.823 0.85l-0.493-1.123c0.701-0.47 1.424-0.807 2.169-1.010s1.522-0.305 2.332-0.305c1.096 0 1.988 0.182 2.678 0.546s1.232 0.834 1.626 1.412c0.394 0.578 0.663 1.225 0.805 1.942s0.214 1.428 0.214 2.134zM49.371 15.819c-0.833-0.022-1.704 0.010-2.613 0.096s-1.747 0.273-2.513 0.562c-0.767 0.289-1.402 0.712-1.906 1.268s-0.756 1.295-0.756 2.215c0 1.091 0.318 1.893 0.953 2.407s1.347 0.77 2.136 0.77c0.635 0 1.204-0.086 1.708-0.257s0.942-0.401 1.314-0.69c0.372-0.289 0.684-0.615 0.937-0.979s0.444-0.738 0.576-1.123c0.11-0.428 0.164-0.739 0.164-0.931z"></path>
  <path class="path4" d="M53.936 8.662l4.008 10.014c0.219 0.556 0.427 1.129 0.625 1.717s0.372 1.129 0.525 1.621h0.066c0.153-0.471 0.328-1 0.525-1.589s0.416-1.193 0.657-1.814l3.746-9.949h1.642l-4.566 11.298c-0.461 1.198-0.893 2.284-1.298 3.258s-0.816 1.851-1.232 2.632c-0.416 0.781-0.838 1.471-1.265 2.070s-0.904 1.123-1.43 1.573c-0.613 0.535-1.177 0.925-1.692 1.171s-0.86 0.401-1.035 0.465l-0.526-1.252c0.394-0.171 0.833-0.396 1.315-0.674s0.953-0.642 1.413-1.091c0.394-0.385 0.827-0.893 1.298-1.525s0.893-1.396 1.265-2.295c0.132-0.342 0.198-0.567 0.198-0.674 0-0.15-0.066-0.374-0.198-0.674l-5.684-14.283z"></path>
</svg>