<svg xmlns="http://www.w3.org/2000/svg" xmlns:xlink="http://www.w3.org/1999/xlink" viewBox="0 0 78 32">
  <title>bitcoin</title>
  <path d="M10.866 5.039q2.989 0 5.527 1.448t4.017 3.955 1.479 5.465q0 2.989-1.448 5.527t-3.955 4.033-5.465 1.495q-2.989 0-5.527-1.448t-4.017-3.955-1.479-5.496 1.448-5.527 3.955-4.017 5.465-1.479zM11.084 20.733q1.526 0.405 2.647 0.047t1.588-1.666q0.685-1.962-1.090-2.896 1.339-0.311 1.557-1.775 0.28-1.837-2.398-2.771l0.498-1.993-1.214-0.28-0.467 1.899q-0.187-0.031-0.514-0.109t-0.452-0.109l0.467-1.931-1.183-0.311-0.498 1.962q-0.28-0.031-0.778-0.156v-0.031l-1.65-0.405-0.311 1.277 0.872 0.218q0.592 0.156 0.529 0.716l-0.56 2.242-0.81 3.145q-0.093 0.405-0.529 0.311l-0.872-0.249-0.623 1.401 1.588 0.374q0.28 0.093 0.841 0.218l-0.498 2.024 1.183 0.28 0.498-1.962q0.778 0.218 0.965 0.249l-0.498 1.962 1.214 0.311zM28.086 13.571q0.28-0.125 0.716-0.249 0.374-0.093 0.747-0.093 0.872 0 1.464 0.311 0.623 0.28 1.028 0.81 0.343 0.436 0.623 1.183 0.187 0.685 0.187 1.495 0 1.246-0.467 2.304-0.405 1.059-1.214 1.899-0.747 0.778-1.837 1.277-1.059 0.467-2.304 0.467-0.031 0-0.218-0.016t-0.343-0.016q-0.218 0-0.903-0.062-0.685-0.125-1.090-0.218-0.654-0.156-1.090-0.405l3.083-12.829 2.709-0.405zM39.265 10.519q0 0.311-0.156 0.685-0.125 0.28-0.405 0.56-0.218 0.249-0.56 0.374-0.28 0.156-0.716 0.156-0.56 0-0.965-0.311-0.467-0.311-0.467-1.028 0-0.311 0.156-0.685 0.125-0.28 0.405-0.56 0.249-0.218 0.56-0.374 0.374-0.156 0.716-0.156 0.498 0 0.996 0.343 0.436 0.343 0.436 0.996zM66.699 11.983q-0.436-0.311-0.436-1.028 0-0.405 0.156-0.685 0.156-0.311 0.374-0.56 0.311-0.249 0.592-0.374 0.374-0.156 0.685-0.156 0.498 0 0.996 0.343 0.436 0.343 0.436 0.996 0 0.311-0.156 0.685-0.125 0.343-0.374 0.56-0.311 0.249-0.592 0.374-0.28 0.156-0.685 0.156-0.592 0-0.996-0.311zM43.127 13.415h2.958l-0.529 2.149h-2.927l-0.778 3.27q-0.125 0.561-0.125 0.747-0.031 0.343 0.093 0.623 0.093 0.28 0.374 0.405 0.249 0.125 0.778 0.125 0.28 0 0.841-0.062 0.249-0.062 0.81-0.249l0.187 2.024q-0.747 0.249-1.152 0.343-0.529 0.125-1.464 0.125-1.246 0-1.9-0.343-0.654-0.374-0.934-0.996-0.311-0.561-0.249-1.432 0-0.778 0.249-1.713l1.713-7.318 2.74-0.436zM10.897 12.512q0.062 0 0.187 0.031 0.374 0.093 0.607 0.156t0.654 0.218 0.638 0.327 0.374 0.483 0.062 0.685q-0.062 0.28-0.234 0.467t-0.436 0.249-0.483 0.093-0.576-0.016-0.529-0.078-0.498-0.125-0.358-0.093zM53.371 15.782q-0.405-0.156-0.716-0.249-0.343-0.125-0.934-0.125-1.339 0-2.086 0.872-0.747 0.934-0.747 2.429 0 0.903 0.374 1.464 0.405 0.561 1.432 0.561 0.529 0 0.996-0.093 0.685-0.218 0.841-0.28l0.187 2.117q-0.529 0.218-1.059 0.343-0.685 0.156-1.464 0.156-1.059 0-1.837-0.343-0.685-0.249-1.277-0.841-0.529-0.623-0.685-1.277-0.249-0.747-0.249-1.495 0-1.121 0.405-2.273 0.374-1.059 1.121-1.868 0.654-0.747 1.744-1.246 1.028-0.467 2.304-0.467 0.716 0 1.432 0.156 0.467 0.093 1.121 0.405zM62.184 14.256q0.436 0.498 0.685 1.214 0.218 0.654 0.218 1.526 0 1.152-0.311 2.117-0.405 1.183-0.996 1.931-0.654 0.841-1.65 1.37-0.996 0.561-2.273 0.561-0.965 0-1.619-0.311-0.747-0.311-1.121-0.778-0.436-0.498-0.685-1.214-0.249-0.747-0.249-1.557 0-1.028 0.374-2.117 0.343-1.059 0.996-1.899t1.65-1.37q0.965-0.56 2.211-0.56 0.903 0 1.619 0.28 0.654 0.249 1.152 0.81zM70.934 13.851q0.062-0.031 0.156-0.047t0.171-0.047 0.171-0.062 0.156-0.062l0.81-0.187q0.467-0.093 1.028-0.187 0.374-0.031 1.246-0.031 2.149 0 2.865 1.183 0.778 1.214 0.28 3.301l-1.214 5.013h-2.616l1.152-4.92q0.125-0.654 0.156-0.903 0.093-0.405 0-0.747-0.031-0.311-0.311-0.529-0.343-0.218-0.81-0.218-0.343 0-1.028 0.125l-1.713 7.193h-2.647zM35.747 13.415h2.647l-2.242 9.311h-2.585zM66.014 13.415h2.616l-2.211 9.311h-2.616zM8.126 14.661l0.125 0.031q-0.062 0-0.125-0.031zM26.374 20.733q0.156 0 0.187 0.031h0.187q0.062 0.031 0.187 0.031h0.343q0.623 0 1.152-0.311 0.529-0.28 0.934-0.81 0.374-0.436 0.654-1.121 0.218-0.747 0.218-1.339 0-0.841-0.28-1.308-0.28-0.498-1.059-0.498-0.249 0-0.623 0.093t-0.716 0.374zM60.346 18.429q0.125-0.529 0.125-1.152 0-0.872-0.28-1.401-0.28-0.467-1.028-0.467-0.592 0-1.028 0.343t-0.716 0.841q-0.343 0.529-0.467 1.121-0.156 0.685-0.156 1.152 0 0.903 0.28 1.401 0.311 0.467 1.028 0.467 0.592 0 1.028-0.343 0.467-0.311 0.747-0.825t0.467-1.137zM9.994 16.125q0.062 0 0.296 0.062t0.374 0.093l0.42 0.093t0.436 0.14 0.436 0.187 0.405 0.202 0.327 0.249 0.249 0.311 0.125 0.374-0.047 0.436q-0.062 0.311-0.265 0.514t-0.514 0.265-0.576 0.093-0.685-0.031-0.623-0.093-0.607-0.14-0.436-0.109z"></path>
</svg>