<svg xmlns="http://www.w3.org/2000/svg" viewBox="0 0 147.4 141.8">
  <title>Bread&Butter Designs</title>
  <path id="hammer" d="M145.9 127s0-.4-3.5-2.9c0 0-16.5-14.9-27.7-28 0 0-19.4-22.6-36.6-37l-1.8 1.2-27.7-29.5.2-.8-4.2-4.8.7-1s-6.8-8.8-2.7-12.5c0 0 6.6-5.9 23.7-4.1h1.9l-.3-2.7-2.3-.5 2.4-.2V1.4S45.4-2.4 32.7 3c0 0-10.7 3.6-16 14.5 0 0 .8 7.7-4.3 12 0 0-2.1 1.9-4.5 1.9l-5.4 6.5.3 1.4s3.5 3.9 11.5 9.2l1.1-.3 4.7-6.1s1-3 1.3-5.1c0 0 4.7-8 10.6-6.3 0 0 2.4.5 4.7 2l.4-.4 4.9 4.9.5-.4 28 29.3-1.3 1.8s12.7 16.9 24.1 28.4c0 0 12.7 13.1 18.3 18.8 0 0 16.2 17.7 20 24.2 0 0 2 2.6 5.2 2.6 0 0 8.4-4.1 10.7-11.8l-1.6-3.1z"/>
  <path id="tool" d="M131 0l-3.3 1.7-1.9 1.9-49 52.8-.4-.4-.6.7c-.5-.3-.8-.4-.9-.3-.1.1 0 .4.4.9L70.9 62c-.5-.3-.8-.4-.9-.2-.1.1 0 .4.3.9L66 67.4c-.5-.3-.8-.4-.9-.2-.1.1 0 .4.3.9l-4.3 4.7c-.4-.2-.8-.3-.9-.2-.1.1 0 .4.3.8l-4.3 4.7c-.4-.2-.8-.3-.9-.2-.1.1 0 .4.3.8l-.4.5c-2.1-1.4-3.7-.3-3.7-.3L34.1 96.6c-3.6 3-3.9 5.5-3.9 5.5-.3 5.8-5 7.3-5 7.3-5.2-1.3-9.4 1.1-9.4 1.1L.1 132.4c-.9 5.7 8 9.3 8 9.3l21.3-16.6c3.7-3.6 3.1-8.1 3.1-8.1.6-6 5.2-7.3 5.2-7.3 1.6-.6 3.4-1.9 3.4-1.9 5.9-4.5 18.2-21.9 18.2-21.9 1.8-2.5-.6-3.9-.6-3.9l.4-.4c.6.4 1 .5 1.2.4.1-.1-.1-.6-.5-1.1l4.3-4.6c.6.3 1 .5 1.1.4.1-.1-.1-.5-.5-1l4.3-4.6c.5.3.9.4 1 .3.1-.1-.1-.5-.4-1l4.3-4.7c.5.3.9.4 1 .3.1-.1 0-.5-.4-.9l4.3-4.7c.5.3.8.4.9.2.1-.1 0-.4-.3-.9l.6-.6-.5-.4L128 6.6l2.5-2.6 1.5-3-1-1z"/>
</svg>