<svg xmlns="http://www.w3.org/2000/svg" xmlns:xlink="http://www.w3.org/1999/xlink" viewBox="0 0 32 32">
  <title>cross</title>
  <path d="M28.908 0.376l-12.907 12.907-12.907-12.907c-0.376-0.375-0.984-0.376-1.358 0l-1.359 1.358c-0.376 0.376-0.376 0.984 0 1.358l12.908 12.907-12.908 12.907c-0.376 0.376-0.376 0.984 0 1.358l1.358 1.358c0.376 0.375 0.984 0.375 1.358 0l12.907-12.907 12.907 12.907c0.376 0.375 0.984 0.376 1.358 0l1.358-1.358c0.376-0.376 0.376-0.984 0-1.358l-12.906-12.907 12.907-12.907c0.376-0.376 0.376-0.984 0-1.358l-1.358-1.358c-0.375-0.376-0.984-0.376-1.358 0z"></path>
</svg>