<svg xmlns="http://www.w3.org/2000/svg" xmlns:xlink="http://www.w3.org/1999/xlink" viewBox="0 0 32 32">
  <title>dogecoin</title>
  <path d="M16 0c-8.823 0-16 7.177-16 16s7.177 16 16 16c8.823 0 16-7.177 16-16s-7.177-16-16-16v0zM23.406 19.474c-0.366 1.143-0.96 2.057-1.646 2.743-0.549 0.549-1.28 0.96-2.194 1.234-0.686 0.229-1.6 0.32-2.789 0.32h-5.897v-6.583h-2.743v-2.286h2.743v-6.674h5.714c1.28 0 2.286 0.091 2.971 0.274 0.914 0.274 1.691 0.731 2.331 1.417s1.143 1.509 1.463 2.514c0.32 1.006 0.503 2.194 0.503 3.657 0 1.326-0.137 2.423-0.457 3.383v0zM19.429 11.749c-0.366-0.366-0.869-0.594-1.463-0.731-0.457-0.091-1.28-0.137-2.56-0.137h-1.417v4.023h2.651v2.286h-2.651v3.977h2.331c0.869 0 1.509-0.046 1.874-0.137 0.503-0.137 0.914-0.32 1.28-0.64 0.32-0.32 0.594-0.823 0.823-1.509s0.32-1.646 0.32-2.834c0-1.189-0.091-2.103-0.32-2.789-0.183-0.64-0.503-1.143-0.869-1.509v0z"></path>
</svg>