<svg xmlns="http://www.w3.org/2000/svg" xmlns:xlink="http://www.w3.org/1999/xlink" viewBox="0 0 32 32">
  <title>facebook</title>
  <path d="M30.208 0q0.75 0 1.271 0.521t0.521 1.271v28.416q0 0.75-0.521 1.271t-1.271 0.521h-8.083v-12.333h4.125l0.583-4.875h-4.708v-3.125q0-1.125 0.5-1.708t1.833-0.583h2.542v-4.333q-1.667-0.167-3.708-0.167-2.792 0-4.5 1.646t-1.708 4.646v3.625h-4.125v4.875h4.125v12.333h-15.292q-0.75 0-1.271-0.521t-0.521-1.271v-28.416q0-0.75 0.521-1.271t1.271-0.521h28.416z"></path>
</svg>