<svg xmlns="http://www.w3.org/2000/svg" xmlns:xlink="http://www.w3.org/1999/xlink" viewBox="0 0 41 32">
  <title>google-plus</title>
  <path d="M12.995 14.142v4.456h7.37c-0.297 1.912-2.228 5.606-7.37 5.606-4.437 0-8.057-3.676-8.057-8.206s3.621-8.206 8.057-8.206c2.525 0 4.214 1.077 5.18 2.005l3.527-3.397c-2.265-2.117-5.198-3.397-8.707-3.397-7.185 0-12.996 5.811-12.996 12.996s5.811 12.996 12.996 12.996c7.5 0 12.476-5.272 12.476-12.698 0-0.854-0.092-1.504-0.204-2.153h-12.272zM40.844 14.142h-3.713v-3.713h-3.713v3.713h-3.713v3.713h3.713v3.713h3.713v-3.713h3.713z"></path>
</svg>