<svg xmlns="http://www.w3.org/2000/svg" xmlns:xlink="http://www.w3.org/1999/xlink" viewBox="0 0 32 32">
  <title>instagram</title>
  <path d="M15.994 2.886c4.273 0 4.775 0.019 6.464 0.095 1.562 0.070 2.406 0.33 2.971 0.552 0.749 0.292 1.283 0.635 1.841 1.194s0.908 1.092 1.194 1.841c0.216 0.565 0.483 1.41 0.552 2.971 0.076 1.689 0.095 2.19 0.095 6.464s-0.019 4.775-0.095 6.464c-0.070 1.562-0.33 2.406-0.552 2.971-0.292 0.749-0.635 1.283-1.194 1.841s-1.092 0.908-1.841 1.194c-0.565 0.216-1.41 0.483-2.971 0.552-1.689 0.076-2.19 0.095-6.464 0.095s-4.775-0.019-6.464-0.095c-1.562-0.070-2.406-0.33-2.971-0.552-0.749-0.292-1.283-0.635-1.841-1.194s-0.908-1.092-1.194-1.841c-0.216-0.565-0.483-1.41-0.552-2.971-0.076-1.689-0.095-2.19-0.095-6.464s0.019-4.775 0.095-6.464c0.070-1.562 0.33-2.406 0.552-2.971 0.292-0.749 0.635-1.283 1.194-1.841s1.092-0.908 1.841-1.194c0.565-0.216 1.41-0.483 2.971-0.552 1.689-0.083 2.19-0.095 6.464-0.095zM15.994 0.003c-4.343 0-4.889 0.019-6.597 0.095-1.702 0.076-2.864 0.349-3.879 0.743-1.054 0.406-1.943 0.959-2.832 1.848s-1.435 1.784-1.848 2.832c-0.394 1.016-0.667 2.178-0.743 3.886-0.076 1.702-0.095 2.248-0.095 6.59s0.019 4.889 0.095 6.597c0.076 1.702 0.349 2.864 0.743 3.886 0.406 1.054 0.959 1.943 1.848 2.832s1.784 1.435 2.832 1.848c1.016 0.394 2.178 0.667 3.886 0.743s2.248 0.095 6.597 0.095 4.889-0.019 6.597-0.095c1.702-0.076 2.864-0.349 3.886-0.743 1.054-0.406 1.943-0.959 2.832-1.848s1.435-1.784 1.848-2.832c0.394-1.016 0.667-2.178 0.743-3.886s0.095-2.248 0.095-6.597-0.019-4.889-0.095-6.597c-0.076-1.702-0.349-2.864-0.743-3.886-0.406-1.054-0.959-1.943-1.848-2.832s-1.784-1.435-2.832-1.848c-1.016-0.394-2.178-0.667-3.886-0.743-1.714-0.070-2.26-0.089-6.603-0.089v0zM15.994 7.781c-4.533 0-8.216 3.676-8.216 8.216s3.683 8.216 8.216 8.216 8.216-3.683 8.216-8.216-3.683-8.216-8.216-8.216zM15.994 21.33c-2.946 0-5.333-2.387-5.333-5.333s2.387-5.333 5.333-5.333c2.946 0 5.333 2.387 5.333 5.333s-2.387 5.333-5.333 5.333zM26.451 7.457c0 1.059-0.858 1.917-1.917 1.917s-1.917-0.858-1.917-1.917c0-1.059 0.858-1.917 1.917-1.917s1.917 0.858 1.917 1.917z"></path>
</svg>