<svg xmlns="http://www.w3.org/2000/svg" xmlns:xlink="http://www.w3.org/1999/xlink" viewBox="0 0 32 32">
  <title>interact</title>
  <path d="M28.922 0q1.188 0 2.031 0.859t0.844 2.047v26.188q0 1.188-0.844 2.047t-2.031 0.859h-26q-1.188 0-2.047-0.859t-0.859-2.047v-26.188q0-1.188 0.859-2.047t2.047-0.859h26zM31.172 2.906q0-0.938-0.656-1.609t-1.594-0.672h-26q-0.938 0-1.609 0.672t-0.672 1.609v26.188q0 0.938 0.672 1.609t1.609 0.672h26q0.938 0 1.594-0.672t0.656-1.609v-26.188zM28.359 6.563q-0.094-0.313-0.219-0.438-0.125-0.031-0.406 0-0.344 0.094-0.531 0.469-0.219 0.344-0.219 1.063 0 0.594 0.219 0.844 0.188 0.281 0.531 0.125 0.219-0.094 0.406-0.313 0.156-0.156 0.281-0.625l1.219-0.188q-0.031 0.469-0.313 1.031-0.25 0.563-0.594 0.813-0.438 0.375-0.938 0.5-0.688 0.188-0.906 0.125-0.438-0.063-0.625-0.25-0.281-0.25-0.438-0.625-0.125-0.5-0.125-1.094 0-0.75 0.188-1.313 0.063-0.25 0.375-0.75 0.25-0.438 0.438-0.563 0.281-0.281 1-0.5 0.813-0.281 1.281 0.031 0.438 0.281 0.625 1.031zM25.078 9.531q0 0.406 0.031 0.563 0 0.188 0.156 0.438l-1.281 0.375-0.063-0.25q-0.063-0.188-0.063-0.281-0.281 0.469-0.531 0.625-0.313 0.313-0.781 0.469-0.656 0.156-0.938-0.094-0.344-0.406-0.344-0.938t0.25-0.969q0.188-0.375 0.844-0.75 0.844-0.531 0.938-0.625 0.313-0.156 0.5-0.344 0-0.313-0.094-0.469-0.125-0.125-0.375-0.031-0.25 0.063-0.5 0.313-0.125 0.25-0.188 0.5l-1.25 0.188q0.094-0.5 0.219-0.781 0.063-0.25 0.344-0.594 0.313-0.25 0.531-0.375l0.688-0.281q0.688-0.156 0.938-0.156 0.344 0 0.625 0.188 0.156 0.156 0.25 0.469 0.094 0.375 0.094 0.719v2.094zM10.641 18.219q0.094 0.125 0.375 0.453t0.484 0.563 0.484 0.594 0.484 0.641 0.391 0.609 0.281 0.594 0.094 0.484v9.063h-5.406q-0.188-0.469-0.844-1.297t-0.656-1.422v-8.406q-0.281 0.125-1.547 0.547t-1.609 0.484q-0.094 0-0.297 0.016t-0.391-0.141-0.188-0.438v-10.375q0-0.594 0.656-0.875 3.094-1.25 6.813-2.438 0.375-0.094 0.625 0.063t0.25 0.563v10.719zM19.641 8.188q0.156-0.5 0.375-0.813 0.125-0.25 0.469-0.344 0.25-0.094 0.625 0.063l-0.375 1.438q-0.344-0.063-0.406-0.031-0.25 0.094-0.406 0.438-0.188 0.531-0.188 1.625v1.625l-1.313 0.375v-4.781l1.219-0.375v0.781zM10.266 7.719q0-0.125-0.031-0.234t-0.156-0.188-0.313-0.047l-4.125 1.438v11.25q0.469-0.156 0.688-0.281v-2.344q0-0.344 0.438-0.703t0.906-0.359q0.188 0 0.391 0.047t0.422 0.156 0.375 0.344 0.156 0.516v5.875h0.219v-4.656q1.031-0.281 1.031-0.719v-2.75l-1.313 0.406v-2.625q0-0.469-0.125-0.656-0.156-0.156-0.375-0.063-0.156 0.031-0.375 0.344-0.125 0.344-0.125 0.969v2.313l-1.313 0.406v-4.781l1.219-0.406v0.781q0.375-0.688 0.531-0.844 0.25-0.313 0.719-0.406 0.531-0.188 0.813 0.188 0.344 0.313 0.344 1.313v-4.281zM12.609 12.563q0 0.375 0.031 0.438 0.156 0.094 0.281 0.063 0.188-0.063 0.375-0.219l0.094 1.25q-0.531 0.281-0.906 0.406-0.531 0.156-0.719 0.063-0.219-0.125-0.313-0.438-0.156-0.313-0.156-1.156v-1.719l-0.469 0.188v-1.375l0.469-0.156v-0.875l1.313-1.313v1.813l0.75-0.219v1.344l-0.75 0.219v1.688zM17.703 11.563q-0.281 0.813-0.719 1.281-0.406 0.406-1.188 0.656-0.625 0.156-1.094 0.063-0.406-0.219-0.594-0.656-0.313-0.531-0.313-1.344 0-1.063 0.531-1.969 0.469-0.781 1.438-1.156 0.781-0.219 1.156-0.031 0.406 0.188 0.625 0.75 0.25 0.563 0.25 1.469v0.219l-2.656 0.781q0.063 0.5 0.156 0.594 0.25 0.313 0.531 0.156 0.219-0.063 0.375-0.25 0.094-0.094 0.219-0.344zM23.797 8.688q-0.031 0.031-0.25 0.188t-0.344 0.219q-0.438 0.344-0.5 0.438-0.094 0.188-0.094 0.344 0 0.281 0.094 0.375t0.313 0.031q0.156-0.031 0.438-0.25 0.188-0.281 0.281-0.469 0.063-0.313 0.063-0.594v-0.281zM4.016 9.313q-0.063 0.031-0.25 0.094t-0.297 0.109-0.266 0.109-0.25 0.125-0.188 0.141-0.141 0.172-0.047 0.219v10.219q0 0.375 0.438 0.375 0.344 0 1-0.375v-11.188zM16.422 10.375q0-0.5-0.188-0.75-0.156-0.156-0.438-0.094-0.25 0.094-0.5 0.531-0.125 0.25-0.125 0.688zM6.109 22.688q-0.156 0.031-0.672 0.203t-0.641 0.172q-0.469 0-0.734-0.359t-0.266-0.828q0-0.406 0.375-0.672t1.125-0.484 0.813-0.25v2.219zM6.109 24.844q-0.125 0.031-0.438 0.156t-0.531 0.188-0.344 0.063q-0.469 0-0.688-0.344t-0.219-0.656q0-0.375 0.281-0.625t0.547-0.328 0.797-0.188 0.594-0.109v1.844zM6.109 27q-0.75 0.406-1.063 0.406-1.156 0-1.156-1.094 0-0.156 0.078-0.297t0.203-0.234 0.297-0.172 0.344-0.141 0.375-0.109 0.359-0.063 0.313-0.047 0.25-0.063v1.813z"></path>
</svg>