<svg xmlns="http://www.w3.org/2000/svg" xmlns:xlink="http://www.w3.org/1999/xlink" viewBox="0 0 23 32">
  <title>lock</title>
  <path d="M21.986 12.829h-1.579v-3.908c0-4.929-4.010-8.94-8.934-8.94-4.927 0-8.934 4.010-8.934 8.94v3.908h-1.581c-0.509 0-0.925 0.415-0.925 0.925v17.346c0 0.509 0.415 0.925 0.925 0.925h21.029c0.512 0 0.925-0.415 0.925-0.925v-17.346c0-0.509-0.413-0.925-0.925-0.925zM12.912 23.385v3.694c0 0.322-0.26 0.584-0.582 0.584h-1.716c-0.322 0-0.584-0.263-0.584-0.584v-3.694c-0.638-0.45-1.053-1.195-1.053-2.037 0-1.378 1.118-2.496 2.496-2.496s2.493 1.118 2.493 2.496c0 0.842-0.415 1.587-1.053 2.037zM16.139 12.829h-9.336v-3.908c0-2.576 2.093-4.672 4.669-4.672 2.573 0 4.667 2.096 4.667 4.672v3.908z"></path>
</svg>