<svg xmlns="http://www.w3.org/2000/svg" xmlns:xlink="http://www.w3.org/1999/xlink" viewBox="0 0 57 32">
  <title>paypal</title>
  <path d="M53.906 8h3.219l-2.656 12h-3.188zM8.531 8.031q1.469 0 2.484 1.078t0.609 2.984q-0.375 1.844-1.703 2.891t-3.141 1.047h-2.469l-0.875 3.969h-3.438l2.625-11.969h5.906zM39.156 8.031q1.469 0 2.5 1.078t0.625 2.984q-0.25 1.219-0.953 2.125t-1.719 1.359-2.234 0.453h-2.438l-0.844 3.969h-3.438l2.625-11.969h5.875zM12.844 11.063q0.156-0.031 0.672-0.156t0.859-0.203 0.906-0.156 1.094-0.078q0.875-0.031 1.641 0.125t1.406 0.5 0.906 1.031 0.047 1.625l-1.313 6.25h-3.156l0.219-0.938q-0.656 0.656-1.656 0.938t-1.891 0.141-1.422-0.984-0.281-2.219q0.344-1.625 1.953-2.328t4.391-0.703q0.094-0.469-0.094-0.75t-0.563-0.391-1-0.078q-0.813 0.031-1.75 0.25t-1.25 0.406zM43.531 11.063q0.188-0.031 0.547-0.125t0.672-0.172 0.703-0.141 0.813-0.109 0.859-0.047q0.906-0.031 1.672 0.125t1.406 0.5 0.922 1.031 0.063 1.625l-1.344 6.25h-3.188l0.219-0.938q-0.656 0.656-1.672 0.938t-1.922 0.141-1.438-0.984-0.281-2.219q0.219-1.125 1.094-1.797t2.156-0.953 3.156-0.281q0.156-0.719-0.266-0.984t-1.391-0.234q-0.563 0-1.219 0.125t-1.141 0.266-0.734 0.266zM6.406 13.75q0.438 0 0.859-0.219t0.719-0.594 0.391-0.844q0.188-0.688-0.156-1.156t-1-0.469h-1.656l-0.75 3.281h1.594zM37.063 13.75q0.656 0 1.25-0.484t0.75-1.172-0.203-1.156-0.984-0.469h-1.75l-0.688 3.281h1.625zM21.813 10.656l1.281 9.406-2.313 3.938h3.531l7.5-13.344h-3.25l-3.125 5.563-0.5-5.563h-3.125zM16.625 16.875q0-0.313 0.156-0.844h-0.813q-1.469 0-1.875 0.781-0.313 0.563-0.016 0.938t0.859 0.375q1.375-0.063 1.688-1.25zM47.344 16.875q0.063-0.531 0.188-0.844h-0.781q-1.563 0-1.906 0.781-0.313 0.563-0.016 0.938t0.859 0.375q1.406-0.063 1.656-1.25z"></path>
</svg>