<svg xmlns="http://www.w3.org/2000/svg" xmlns:xlink="http://www.w3.org/1999/xlink" viewBox="0 0 32 32">
  <title>pinterest</title>
  <path d="M16 0q3.25 0 6.208 1.271t5.104 3.417 3.417 5.104 1.271 6.208q0 4.333-2.146 8.021t-5.833 5.833-8.021 2.146q-2.375 0-4.542-0.625 1.208-1.958 1.625-3.458l1.125-4.375q0.417 0.792 1.542 1.396t2.375 0.604q2.5 0 4.479-1.438t3.063-3.937 1.083-5.625q0-3.708-2.854-6.437t-7.271-2.729q-2.708 0-4.958 0.917t-3.625 2.396-2.104 3.208-0.729 3.479q0 2.167 0.812 3.792t2.438 2.292q0.292 0.125 0.5 0.021t0.292-0.396q0.292-1.042 0.333-1.292 0.167-0.458-0.208-0.875-1.083-1.208-1.083-3.125 0-3.167 2.188-5.437t5.729-2.271q3.125 0 4.875 1.708t1.75 4.458q0 2.292-0.625 4.229t-1.792 3.104-2.667 1.167q-1.25 0-2.042-0.917t-0.5-2.167q0.167-0.583 0.438-1.5t0.458-1.563 0.354-1.396 0.167-1.25q0-1.042-0.542-1.708t-1.583-0.667q-1.292 0-2.167 1.188t-0.875 2.979q0 0.667 0.104 1.292t0.229 0.917l0.125 0.292q-1.708 7.417-2.083 8.708-0.333 1.583-0.25 3.708-4.292-1.917-6.938-5.875t-2.646-8.792q0-6.625 4.687-11.312t11.312-4.687z"></path>
</svg>