<svg xmlns="http://www.w3.org/2000/svg" xmlns:xlink="http://www.w3.org/1999/xlink" viewBox="0 0 32 32">
  <title>plus</title>
  <path d="M31.273 14.545h-13.818v-13.818c0-0.401-0.326-0.727-0.727-0.727h-1.455c-0.401 0-0.727 0.326-0.727 0.727v13.818h-13.818c-0.401 0-0.727 0.326-0.727 0.727v1.455c0 0.401 0.326 0.727 0.727 0.727h13.818v13.818c0 0.401 0.326 0.727 0.727 0.727h1.455c0.401 0 0.727-0.326 0.727-0.727v-13.818h13.818c0.401 0 0.727-0.326 0.727-0.727v-1.455c0-0.401-0.326-0.727-0.727-0.727z"></path>
</svg>