<svg xmlns="http://www.w3.org/2000/svg" xmlns:xlink="http://www.w3.org/1999/xlink" viewBox="0 0 32 32">
  <title>rss</title>
  <path d="M7.253 24.736c0.774 0.774 1.246 1.824 1.25 2.993-0.004 1.167-0.476 2.219-1.248 2.989l-0.002 0.002c-0.774 0.77-1.83 1.239-3.006 1.239-1.173 0-2.227-0.471-3.002-1.242-0.77-0.77-1.246-1.82-1.246-2.989s0.476-2.221 1.246-2.995v0.002c0.774-0.772 1.828-1.246 3.002-1.246 1.175 0 2.231 0.476 3.006 1.246zM7.253 24.734v0.002c0.002 0 0.002 0 0.002 0l-0.002-0.002zM1.246 30.72c0 0 0 0 0-0.002 0 0 0 0 0 0v0.002zM0.004 10.882v6.11c3.987 0.002 7.761 1.568 10.586 4.397 2.822 2.818 4.382 6.598 4.388 10.601h0.002v0.011h6.135c-0.004-5.82-2.37-11.093-6.195-14.921s-9.097-6.195-14.916-6.197zM0.015 0v6.108c14.259 0.011 25.85 11.62 25.86 25.892h6.125c-0.004-8.821-3.59-16.813-9.385-22.611-5.796-5.796-13.783-9.385-22.601-9.389z"></path>
</svg>