<svg xmlns="http://www.w3.org/2000/svg" xmlns:xlink="http://www.w3.org/1999/xlink" viewBox="0 0 32 32">
  <title>search</title>
  <path d="M31.28 31.481c-0.299 0.299-0.688 0.45-1.080 0.45-0.39 0-0.781-0.15-1.078-0.45l-7.638-7.672c-2.263 1.775-4.966 2.717-7.699 2.717-3.218 0-6.436-1.23-8.885-3.69-4.9-4.92-4.9-12.927 0-17.849 4.9-4.918 12.873-4.918 17.77 0 4.531 4.551 4.817 11.709 0.97 16.657l7.64 7.672c0.595 0.598 0.595 1.567 0 2.165zM20.514 7.155c-1.856-1.863-4.291-2.794-6.729-2.794s-4.873 0.931-6.729 2.794c-3.71 3.726-3.71 9.79 0 13.515 3.71 3.726 9.746 3.726 13.457 0 3.71-3.725 3.71-9.788 0-13.515z"></path>
</svg>