<svg xmlns="http://www.w3.org/2000/svg" xmlns:xlink="http://www.w3.org/1999/xlink" viewBox="0 0 44 32">
  <title>stripe</title>
  <path d="M23.016 10.496q0.751 0 1.251-0.516t0.5-1.235-0.5-1.235-1.251-0.516q-0.469 0-0.876 0.235t-0.625 0.641-0.219 0.876q0 0.719 0.5 1.235t1.22 0.516zM13.728 18.877q-0.063 0-0.266 0.031t-0.375 0.063-0.36 0.047-0.25 0.016q-0.313 0-0.453-0.172t-0.141-0.641v-4.316h1.407l0.438-2.22h-1.845v-2.94l-3.033 0.751-0.469 2.189h-1.313v2.22h1.313v4.972q0 0.563 0.109 1.001t0.281 0.735 0.422 0.5 0.485 0.313 0.547 0.172 0.516 0.078 0.485 0.016q1.251 0 2.502-0.313v-2.502zM4.284 15.312q-0.407-0.188-0.532-0.25t-0.235-0.203-0.109-0.328q0-0.5 0.751-0.5 1.032 0 2.189 0.407v-2.471q-1.22-0.438-2.564-0.438-0.719 0-1.345 0.141t-1.204 0.469-0.907 0.985-0.328 1.595q0 1.908 2.001 2.846l0.438 0.219q0.469 0.188 0.657 0.344t0.188 0.407q0 0.594-0.969 0.594-0.782 0-2.189-0.469v2.564q1.595 0.469 2.846 0.469 3.753 0 3.753-3.346 0-0.657-0.188-1.157t-0.532-0.829-0.641-0.5-0.704-0.36zM17.981 14.78q0.625-0.313 1.157-0.313 0.657 0 1.282 0.188v-2.94q-0.25-0.188-1.063-0.188-1.251 0-1.564 1.126l-0.532-0.969h-2.783v9.82h3.503v-6.724zM29.771 21.473q0.813 0.219 1.251 0.219 0.375 0 0.625-0.016t0.688-0.125 0.735-0.297 0.657-0.563 0.579-0.907 0.375-1.376 0.156-1.876q0-1.345-0.203-2.299t-0.485-1.47-0.735-0.797-0.829-0.36-0.876-0.078q-1.22 0-2.095 0.813l-0.5-0.657h-2.846v13.322h3.503v-3.534zM44 17.783v-1.157q0-2.783-1.016-3.94t-2.861-1.157q-4.347 0-4.347 5.097 0 1.345 0.313 2.33t0.751 1.501 1.157 0.813 1.282 0.36 1.376 0.063q1.47 0 2.877-0.5v-2.564q-2.314 0.407-2.877 0.407-0.469 0-0.751-0.078t-0.453-0.375-0.172-0.797h4.722zM24.799 21.504v-9.82h-3.503v9.82h3.503zM39.278 15.875v-0.375t0.016-0.375 0.016-0.344 0.031-0.328 0.063-0.266 0.094-0.235 0.156-0.172 0.203-0.125 0.266-0.031q0.219 0 0.36 0.141t0.188 0.516 0.063 0.672 0.016 0.923h-1.47zM29.771 14.405q0.438-0.313 0.813-0.313 0.469 0 0.625 0.438t0.156 2.001q0 1.532-0.25 2.111t-0.751 0.579q-0.313 0-0.594-0.094v-4.722z"></path>
</svg>