<svg xmlns="http://www.w3.org/2000/svg" xmlns:xlink="http://www.w3.org/1999/xlink" viewBox="0 0 32 32">
  <title>tumblr</title>
  <path d="M6.593 13.105h3.323v11.256q0 2.037 0.456 3.35 0.509 1.206 1.581 2.144 1.045 0.965 2.76 1.581 1.635 0.563 3.725 0.563 1.822 0 3.404-0.402 1.367-0.268 3.564-1.313v-5.038q-2.224 1.528-4.61 1.528-1.179 0-2.358-0.616-0.697-0.456-1.045-1.26-0.268-0.884-0.268-3.564v-8.228h7.236v-5.038h-7.236v-8.067h-4.342q-0.214 2.278-1.045 4.047-0.831 1.715-2.090 2.734-1.313 1.233-3.055 1.769v4.556z"></path>
</svg>