<svg xmlns="http://www.w3.org/2000/svg" xmlns:xlink="http://www.w3.org/1999/xlink" viewBox="0 0 32 32">
  <title>twitter</title>
  <path d="M31.813 6.126q-1.348 1.988-3.235 3.37 0 0.135 0.034 0.421t0.034 0.421q0 2.629-0.775 5.257t-2.359 5.021-3.758 4.246-5.223 2.966-6.555 1.112q-5.459 0-9.975-2.932 0.944 0.067 1.55 0.067 4.55 0 8.122-2.763-2.123-0.034-3.791-1.297t-2.342-3.252q0.573 0.135 1.247 0.135 0.91 0 1.719-0.27-2.258-0.472-3.741-2.258t-1.483-4.111v-0.067q1.281 0.674 2.932 0.741-1.314-0.876-2.089-2.308t-0.775-3.084q0-1.685 0.843-3.303 2.46 3.067 5.948 4.836t7.566 1.971q-0.236-0.842-0.236-1.483 0-2.696 1.921-4.6t4.684-1.904q1.348 0 2.595 0.539t2.123 1.517q2.224-0.438 4.145-1.584-0.708 2.292-2.864 3.606 2.056-0.27 3.741-1.011z"></path>
</svg>