<svg xmlns="http://www.w3.org/2000/svg" xmlns:xlink="http://www.w3.org/1999/xlink" viewBox="0 0 32 32">
  <title>vimeo</title>
  <path d="M0 9.393l1.511 2.023q2.1-1.562 2.535-1.562 1.664 0 3.098 5.301 0.384 1.46 1.255 4.75t1.357 5.057q1.895 5.301 4.763 5.301 4.558 0 11.062-8.757 6.376-8.322 6.606-13.162v-0.563q0-5.89-4.712-6.043h-0.358q-6.325 0-8.706 7.759 1.383-0.589 2.407-0.589 2.177 0 2.177 2.253 0 0.282-0.026 0.589-0.154 1.818-2.151 4.968-2.049 3.303-3.047 3.303-1.332 0-2.356-5.019-0.307-1.178-1.306-7.605-0.435-2.766-1.613-4.097-1.024-1.152-2.561-1.178-0.205 0-0.435 0.026-1.613 0.154-4.788 2.945-1.639 1.536-4.712 4.302z"></path>
</svg>