<svg xmlns="http://www.w3.org/2000/svg" xmlns:xlink="http://www.w3.org/1999/xlink" viewBox="0 0 43 32">
  <title>visa</title>
  <path d="M30.678 12.341q-1.251-0.563-2.596-0.532-0.969 0-1.485 0.36t-0.516 0.813 0.453 0.813 1.517 0.891q2.971 1.345 2.94 3.659 0 2.127-1.657 3.393t-4.441 1.267q-2.314-0.031-3.909-0.719l0.469-3.065 0.438 0.25q1.783 0.719 3.315 0.719 0.844 0 1.47-0.36t0.657-1.016q0-0.438-0.407-0.797t-1.47-0.891q-0.594-0.313-1.048-0.594t-0.954-0.735-0.782-1.063-0.281-1.298q0.031-1.97 1.704-3.205t4.269-1.235q1.657 0 3.127 0.532l-0.438 2.971zM16.043 9.245l-5.535 13.572h-3.69l-2.877-10.82q1.501 0.594 2.736 1.814t1.767 2.658q-1.939-5.348-8.444-6.974l0.031-0.25h5.66q1.313 0 1.595 1.095l1.22 6.255 0.407 1.876 3.409-9.226h3.721zM20.984 9.245l-2.189 13.572h-3.503l2.189-13.572h3.503zM43.313 22.817h-3.284q-0.25-1.595-0.375-2.033l-4.503-0.031-0.719 2.064h-3.721l5.223-12.478q0.469-1.095 1.845-1.095h2.689zM38.059 12.873q-0.094 0.25-0.219 0.579t-0.203 0.547-0.047 0.188q-1.126 3.002-1.407 3.815h2.846l-0.751-3.94z"></path>
</svg>