<svg xmlns="http://www.w3.org/2000/svg" xmlns:xlink="http://www.w3.org/1999/xlink" viewBox="0 0 33 32">
  <title>youtube</title>
  <path d="M0 25.693q0 1.997 1.318 3.395t3.209 1.398h24.259q1.891 0 3.209-1.398t1.318-3.395v-19.306q0-1.997-1.331-3.435t-3.195-1.438h-24.259q-1.864 0-3.195 1.438t-1.331 3.435v19.306zM12.116 22.205v-12.329q0-0.186 0.107-0.293 0.080-0.027 0.133-0.027l0.133 0.027 11.61 6.178q0.107 0.107 0.107 0.266 0 0.107-0.107 0.213l-11.61 6.178q-0.053 0.053-0.107 0.053-0.107 0-0.16-0.053-0.107-0.107-0.107-0.213z"></path>
</svg>